<svg id="tech" viewBox="0 0 111 38" version="1.1" xmlns="http://www.w3.org/2000/svg" xmlns:xlink="http://www.w3.org/1999/xlink">
    <g  fill="none" stroke="" stroke-width="1.5">
        <g transform="translate(-87.000000, -87.000000)" fill-rule="nonzero" >
            <g transform="translate(88.000000, 88.000000)">
                <path d="M17.2896175,36 L17.2896175,6.09308886 L28,6.09308886 L28,0 L0,0 L0,6.09308886 L10.7103825,6.09308886 L10.7103825,36 L17.2896175,36 Z M42.302521,36 C43.9831933,36 45.5966387,35.7197802 47.1428571,35.1593407 C48.6890756,34.5989011 50.0168067,33.6758242 51.1260504,32.3901099 C51.6302521,31.7967033 52.1092437,31.0467033 52.5630252,30.1401099 C53.0168067,29.2335165 53.2773109,28.4010989 53.3445378,27.6428571 L53.3445378,27.6428571 L47.2941176,27.6428571 C47.0588235,28.5 46.6386555,29.2252747 46.0336134,29.8186813 C45.5630252,30.2802198 45.0336134,30.6016484 44.4453782,30.782967 C43.8571429,30.9642857 43.1092437,31.0549451 42.2016807,31.0549451 C41.3277311,31.0549451 40.5798319,30.8983516 39.9579832,30.5851648 C39.3361345,30.271978 38.789916,29.9010989 38.3193277,29.4725275 C37.6806723,28.8791209 37.2016807,28.1373626 36.8823529,27.2472527 C36.5630252,26.3571429 36.4033613,25.4175824 36.4033613,24.4285714 L36.4033613,24.4285714 L53.9495798,24.4285714 L53.9495798,23.3406593 C53.9495798,23.1428571 53.9663866,22.9285714 54,22.6978022 C54,21.0824176 53.8655462,19.5412088 53.5966387,18.0741758 C53.3277311,16.6071429 52.7058824,15.1648352 51.7310924,13.7472527 C50.6554622,12.1318681 49.2773109,10.9368132 47.5966387,10.1620879 C45.9159664,9.38736264 44.1008403,9 42.1512605,9 C40.3361345,9 38.7310924,9.2967033 37.3361345,9.89010989 C35.9411765,10.4835165 34.7563025,11.2747253 33.7815126,12.2637363 C32.5042017,13.5164835 31.5546218,15.0247253 30.9327731,16.7884615 C30.3109244,18.5521978 30,20.4725275 30,22.5494505 C30,24.6593407 30.3445378,26.5879121 31.0336134,28.3351648 C31.7226891,30.0824176 32.7226891,31.5824176 34.0336134,32.8351648 C35.0756303,33.7912088 36.2605042,34.5576923 37.5882353,35.1346154 C38.9159664,35.7115385 40.487395,36 42.302521,36 Z M48,20 L37,20 C37.0325926,19.1404959 37.1466667,18.3966942 37.3422222,17.768595 C37.5377778,17.1404959 37.8637037,16.5454545 38.32,15.9834711 C38.7762963,15.3884298 39.362963,14.9090909 40.08,14.5454545 C40.797037,14.1818182 41.6281481,14 42.5733333,14 C43.4533333,14 44.2111111,14.1322314 44.8466667,14.3966942 C45.4822222,14.661157 46.0118519,15.0247934 46.4355556,15.4876033 C47.4459259,16.6115702 47.9674074,18.1157025 48,20 L48,20 Z M70.004386,36 C72.0219298,36 73.7956871,35.6029412 75.3256579,34.8088235 C76.8556287,34.0147059 78.0745614,33.0551471 78.9824561,31.9301471 C79.5877193,31.1691176 80.0584795,30.3005515 80.3947368,29.3244485 C80.7309942,28.3483456 80.9327485,27.3474265 81,26.3216912 L81,26.3216912 L74.7960526,26.3216912 C74.7624269,26.7849265 74.6783626,27.2150735 74.5438596,27.6121324 C74.4093567,28.0091912 74.2412281,28.3731618 74.0394737,28.7040441 C73.6695906,29.2665441 73.1483918,29.7297794 72.4758772,30.09375 C71.8033626,30.4577206 70.9795322,30.6397059 70.004386,30.6397059 C69.130117,30.6397059 68.3819444,30.4825368 67.7598684,30.1681985 C67.1377924,29.8538603 66.6081871,29.4650735 66.1710526,29.0018382 C65.3976608,28.1746324 64.9100877,27.1902574 64.7083333,26.0487132 C64.5065789,24.9071691 64.4057018,23.7242647 64.4057018,22.5 C64.4057018,21.2757353 64.5065789,20.0845588 64.7083333,18.9264706 C64.9100877,17.7683824 65.3976608,16.7757353 66.1710526,15.9485294 C66.6081871,15.4852941 67.1377924,15.1047794 67.7598684,14.8069853 C68.3819444,14.5091912 69.130117,14.3602941 70.004386,14.3602941 C70.9795322,14.3602941 71.8033626,14.5422794 72.4758772,14.90625 C73.1483918,15.2702206 73.6695906,15.7334559 74.0394737,16.2959559 C74.2412281,16.6268382 74.4093567,16.9908088 74.5438596,17.3878676 C74.6783626,17.7849265 74.7624269,18.2150735 74.7960526,18.6783088 L74.7960526,18.6783088 L81,18.6783088 C80.9327485,17.6525735 80.7309942,16.6516544 80.3947368,15.6755515 C80.0584795,14.6994485 79.5877193,13.8308824 78.9824561,13.0698529 C78.0745614,11.9448529 76.8556287,10.9852941 75.3256579,10.1911765 C73.7956871,9.39705882 72.0219298,9 70.004386,9 C67.9868421,9 66.1878655,9.40533088 64.6074561,10.2159926 C63.0270468,11.0266544 61.7828947,11.9779412 60.875,13.0698529 C59.8998538,14.2941176 59.1769006,15.7003676 58.7061404,17.2886029 C58.2353801,18.8768382 58,20.6139706 58,22.5 C58,24.3860294 58.2353801,26.1231618 58.7061404,27.7113971 C59.1769006,29.2996324 59.8998538,30.7058824 60.875,31.9301471 C61.7828947,33.0220588 63.0270468,33.9733456 64.6074561,34.7840074 C66.1878655,35.5946691 67.9868421,36 70.004386,36 Z M93.2076749,36 L93.2076749,22.3379501 C93.2076749,21.5401662 93.3069977,20.7174515 93.5056433,19.8698061 C93.7042889,19.0221607 94.0188111,18.2493075 94.4492099,17.5512465 C94.8796087,16.8531856 95.434161,16.2797784 96.1128668,15.8310249 C96.7915726,15.3822715 97.5944319,15.1578947 98.5214447,15.1578947 C100.176825,15.1578947 101.302483,15.5900277 101.89842,16.4542936 C102.494357,17.3185596 102.792325,18.498615 102.792325,19.9944598 L102.792325,19.9944598 L102.792325,36 L109,36 L109,18.6980609 C109,17.3684211 108.801354,16.1385042 108.404063,15.0083102 C108.006772,13.8781163 107.435666,12.8975069 106.690745,12.066482 C105.945824,11.2354571 105.035365,10.5872576 103.959368,10.1218837 C102.883371,9.6565097 101.650113,9.42382271 100.259594,9.42382271 C98.9021821,9.42382271 97.5778781,9.71468144 96.2866817,10.2963989 C94.9954853,10.8781163 93.9691497,11.7174515 93.2076749,12.8144044 L93.2076749,12.8144044 L93.2076749,0 L87,0 L87,36 L93.2076749,36 Z" id="Tech"></path>
            </g>
        </g>
    </g>
</svg>
